<?xml version="1.0" standalone="no"?>
<!DOCTYPE svg PUBLIC "-//W3C//DTD SVG 20010904//EN"
 "http://www.w3.org/TR/2001/REC-SVG-20010904/DTD/svg10.dtd">
<svg version="1.0" xmlns="http://www.w3.org/2000/svg"
 width="684.000000pt" height="684.000000pt" viewBox="0 0 684.000000 684.000000"
 preserveAspectRatio="xMidYMid meet">
<metadata>
Created by potrace 1.14, written by Peter Selinger 2001-2017
</metadata>
<g transform="translate(0.000000,684.000000) scale(0.100000,-0.100000)"
fill="#000000" stroke="none">
<path d="M535 6291 c-48 -23 -289 -264 -305 -304 -13 -36 -13 -108 1 -144 5
-15 146 -164 312 -330 l302 -303 -91 0 c-301 0 -550 -184 -650 -480 -18 -53
-19 -129 -22 -1820 -3 -1978 -7 -1849 70 -2010 33 -69 57 -101 127 -171 70
-70 102 -94 171 -127 163 -78 -81 -72 2970 -72 3049 0 2808 -6 2968 71 61 30
104 60 160 114 88 84 141 166 180 280 l27 80 0 1795 c0 1713 -1 1798 -18 1854
-73 236 -251 407 -485 467 -73 18 -127 19 -1689 19 -887 0 -1613 3 -1613 7 0
4 135 143 299 308 256 257 301 306 312 343 16 55 1 119 -40 171 -55 69 -241
242 -276 256 -45 19 -96 19 -143 0 -25 -11 -198 -177 -547 -524 -479 -478
-513 -510 -564 -526 -70 -23 -169 -17 -231 14 -31 16 -196 173 -545 522 -344
342 -512 503 -537 514 -49 20 -94 19 -143 -4z m5426 -1789 c39 -20 62 -41 84
-77 l30 -48 3 -1491 c3 -1647 7 -1536 -61 -1606 -17 -18 -50 -41 -72 -51 -38
-18 -141 -19 -2546 -19 l-2507 0 -53 28 c-39 20 -62 41 -84 77 l-30 48 0 1507
0 1507 30 48 c22 36 45 57 84 77 l53 28 2508 0 2508 0 53 -28z"/>
<path d="M1091 4196 c-53 -29 -50 33 -51 -1328 l0 -1268 29 -32 29 -33 2302 0
2302 0 29 33 29 32 0 1266 c0 1375 3 1306 -55 1332 -40 19 -4580 17 -4614 -2z
m1269 -726 l0 -140 160 0 160 0 0 -140 0 -140 160 0 160 0 0 -200 0 -200 -200
0 -200 0 0 160 0 160 -420 0 -420 0 0 -160 0 -160 -180 0 -180 0 0 200 0 200
160 0 160 0 0 140 0 140 160 0 160 0 0 140 0 140 160 0 160 0 0 -140z m2440 0
l0 -140 160 0 160 0 0 -140 0 -140 160 0 160 0 0 -200 0 -200 -200 0 -200 0 0
160 0 160 -420 0 -420 0 0 -160 0 -160 -180 0 -180 0 0 200 0 200 160 0 160 0
0 140 0 140 160 0 160 0 0 140 0 140 160 0 160 0 0 -140z"/>
</g>
</svg>
