<svg id="Layer_1" data-name="Layer 1" xmlns="http://www.w3.org/2000/svg" viewBox="0 0 167 144.44">
  <path d="M1027.21,495.8H948.42l14.28-14.29a4.65,4.65,0,0,0,0-6.6l-5.17-5.17a4.65,4.65,0,0,0-6.6,0l-23.5,23.5a7.45,7.45,0,0,1-10.52,0l-23.5-23.5a4.67,4.67,0,0,0-6.61,0l-5.17,5.17a4.67,4.67,0,0,0,0,6.6l14.29,14.29h-2.39a16.66,16.66,0,0,0-16.66,16.66v83.68a16.66,16.66,0,0,0,16.66,16.66h133.68a16.66,16.66,0,0,0,16.66-16.66V512.46A16.66,16.66,0,0,0,1027.21,495.8Zm-4.93,100H899.46a5.59,5.59,0,0,1-5.59-5.59V518.4a5.6,5.6,0,0,1,5.6-5.6h122.8a5.6,5.6,0,0,1,5.6,5.6v71.81A5.59,5.59,0,0,1,1022.28,595.8Z" transform="translate(-876.87 -468.36)"/>
  <path d="M1017.32,520.8H904.42a2.55,2.55,0,0,0-2.55,2.55v61.9a2.55,2.55,0,0,0,2.55,2.55h112.9a2.55,2.55,0,0,0,2.55-2.55v-61.9A2.55,2.55,0,0,0,1017.32,520.8Zm-67.45,38h-9v-8h-21v8h-10v-9h8v-7h8v-7h9v7h8v7h7Zm61,0h-9v-8h-21v8h-10v-9h8v-7h8v-7h9v7h8v7h7Z" transform="translate(-876.87 -468.36)"/>
</svg>
