<svg id="Layer_1" data-name="Layer 1" xmlns="http://www.w3.org/2000/svg" viewBox="0 0 99.81 60.35">
  <defs>
    <style>
      .cls-1 {
        opacity: 0.8;
      }

      .cls-2 {
        opacity: 0.05;
      }

      .cls-3 {
        opacity: 0.1;
      }
    </style>
  </defs>
  <g class="cls-1">
    <path d="M939.35,549.44H921a.51.51,0,0,1-.5-.5.5.5,0,0,1,.5-.5h18.34a.5.5,0,0,1,.5.5A.51.51,0,0,1,939.35,549.44Z" transform="translate(-910.46 -510.42)"/>
    <path d="M948.31,560.6H935.14a.5.5,0,0,1-.5-.5.51.51,0,0,1,.5-.5h13.17a.51.51,0,0,1,.5.5A.5.5,0,0,1,948.31,560.6Z" transform="translate(-910.46 -510.42)"/>
    <path d="M965.24,570.77H952.08a.5.5,0,0,1-.5-.5.5.5,0,0,1,.5-.5h13.16a.5.5,0,0,1,.5.5A.51.51,0,0,1,965.24,570.77Z" transform="translate(-910.46 -510.42)"/>
    <path d="M978.14,560.6h-2.82a.5.5,0,0,1-.5-.5.5.5,0,0,1,.5-.5h2.82a.5.5,0,0,1,.5.5A.5.5,0,0,1,978.14,560.6Z" transform="translate(-910.46 -510.42)"/>
    <path d="M970.06,570.77h-2.82a.51.51,0,0,1-.5-.5.5.5,0,0,1,.5-.5h2.82a.5.5,0,0,1,.5.5A.5.5,0,0,1,970.06,570.77Z" transform="translate(-910.46 -510.42)"/>
    <path d="M973.45,560.6h-7.57a.5.5,0,0,1-.5-.5.5.5,0,0,1,.5-.5h7.57a.5.5,0,0,1,.5.5A.5.5,0,0,1,973.45,560.6Z" transform="translate(-910.46 -510.42)"/>
    <path d="M953.47,560.6h-2.79a.5.5,0,0,1-.5-.5.5.5,0,0,1,.5-.5h2.79a.5.5,0,0,1,.5.5A.5.5,0,0,1,953.47,560.6Z" transform="translate(-910.46 -510.42)"/>
    <path d="M945.9,549.44h-4.82a.5.5,0,0,1-.5-.5.5.5,0,0,1,.5-.5h3.62C945.08,548.79,945.48,549.12,945.9,549.44Z" transform="translate(-910.46 -510.42)"/>
    <path d="M918.54,549.44h-3.4a.5.5,0,0,1-.5-.5.5.5,0,0,1,.5-.5h3.4a.5.5,0,0,1,.5.5A.5.5,0,0,1,918.54,549.44Z" transform="translate(-910.46 -510.42)"/>
    <path d="M1005.44,549.44H1002a.51.51,0,0,1-.5-.5.5.5,0,0,1,.5-.5h3.4a.5.5,0,0,1,.5.5A.5.5,0,0,1,1005.44,549.44Z" transform="translate(-910.46 -510.42)"/>
    <path d="M999.22,549.44h-2.31a.51.51,0,0,1-.5-.5.5.5,0,0,1,.5-.5h2.31a.5.5,0,0,1,.5.5A.51.51,0,0,1,999.22,549.44Z" transform="translate(-910.46 -510.42)"/>
  </g>
  <g class="cls-2">
    <g>
      <path d="M991.1,551.3a.54.54,0,0,1-.35-.14l-3-3a.5.5,0,0,1,0-.71.5.5,0,0,1,.7,0l3,3a.51.51,0,0,1,0,.71A.54.54,0,0,1,991.1,551.3Z" transform="translate(-910.46 -510.42)"/>
      <path d="M988.12,551.3a.5.5,0,0,1-.35-.85l3-3a.5.5,0,0,1,.71.71l-3,3A.5.5,0,0,1,988.12,551.3Z" transform="translate(-910.46 -510.42)"/>
    </g>
    <g>
      <path d="M1001.2,530.1a.5.5,0,0,1-.35-.15l-3-3a.51.51,0,0,1,0-.71.5.5,0,0,1,.71,0l3,3a.51.51,0,0,1,0,.71A.51.51,0,0,1,1001.2,530.1Z" transform="translate(-910.46 -510.42)"/>
      <path d="M998.22,530.1a.51.51,0,0,1-.36-.15.51.51,0,0,1,0-.71l3-3a.5.5,0,0,1,.71,0,.51.51,0,0,1,0,.71l-3,3A.49.49,0,0,1,998.22,530.1Z" transform="translate(-910.46 -510.42)"/>
    </g>
    <g>
      <path d="M922.51,530.61a.51.51,0,0,1-.36-.15l-3-3a.48.48,0,0,1,0-.7.5.5,0,0,1,.71,0l3,3a.5.5,0,0,1,0,.71A.5.5,0,0,1,922.51,530.61Z" transform="translate(-910.46 -510.42)"/>
      <path d="M919.52,530.61a.49.49,0,0,1-.35-.15.5.5,0,0,1,0-.71l3-3a.5.5,0,0,1,.71,0,.48.48,0,0,1,0,.7l-3,3A.51.51,0,0,1,919.52,530.61Z" transform="translate(-910.46 -510.42)"/>
    </g>
    <g>
      <path d="M950.42,556.51a.5.5,0,0,1-.35-.15l-3-3a.5.5,0,1,1,.71-.71l3,3a.5.5,0,0,1,0,.7A.51.51,0,0,1,950.42,556.51Z" transform="translate(-910.46 -510.42)"/>
      <path d="M947.44,556.51a.51.51,0,0,1-.36-.15.5.5,0,0,1,0-.7l3-3a.5.5,0,0,1,.71.71l-3,3A.49.49,0,0,1,947.44,556.51Z" transform="translate(-910.46 -510.42)"/>
    </g>
    <path d="M923.06,566.81a3.59,3.59,0,1,1,3.58-3.58A3.59,3.59,0,0,1,923.06,566.81Zm0-6.17a2.59,2.59,0,1,0,2.58,2.59A2.59,2.59,0,0,0,923.06,560.64Z" transform="translate(-910.46 -510.42)"/>
    <path d="M980.4,563.73a2,2,0,1,1,2-2A2,2,0,0,1,980.4,563.73Zm0-3.09a1,1,0,1,0,1,1.05A1,1,0,0,0,980.4,560.64Z" transform="translate(-910.46 -510.42)"/>
    <path d="M1005.44,557.17a2,2,0,1,1,2-2A2.05,2.05,0,0,1,1005.44,557.17Zm0-3.09a1,1,0,1,0,1,1A1,1,0,0,0,1005.44,554.08Z" transform="translate(-910.46 -510.42)"/>
    <path d="M937.81,548.54a2,2,0,1,1,2-2A2.05,2.05,0,0,1,937.81,548.54Zm0-3.09a1,1,0,1,0,1,1A1,1,0,0,0,937.81,545.45Z" transform="translate(-910.46 -510.42)"/>
  </g>
  <g>
    <path d="M921.8,531.58v9.92h-9.92v-9.92h9.92m0-1.42h-9.92a1.43,1.43,0,0,0-1.42,1.42v9.92a1.42,1.42,0,0,0,1.42,1.41h9.92a1.41,1.41,0,0,0,1.41-1.41v-9.92a1.42,1.42,0,0,0-1.41-1.42Z" transform="translate(-910.46 -510.42)"/>
    <path d="M917.55,540.08H914a.71.71,0,0,1-.71-.71h0a.71.71,0,0,1,.71-.71h3.54a.71.71,0,0,1,.71.71h0A.71.71,0,0,1,917.55,540.08Zm2.12-2.83H914a.71.71,0,0,1-.71-.71h0a.71.71,0,0,1,.71-.71h5.66a.71.71,0,0,1,.71.71h0A.71.71,0,0,1,919.67,537.25Zm0-2.84H914a.7.7,0,0,1-.71-.7h0A.71.71,0,0,1,914,533h5.66a.71.71,0,0,1,.71.71h0A.7.7,0,0,1,919.67,534.41Z" transform="translate(-910.46 -510.42)"/>
  </g>
  <g>
    <path d="M940.13,542.91H927.88A1.9,1.9,0,0,1,926,541V527.66a1.91,1.91,0,0,1,1.9-1.91h9.53a17.36,17.36,0,0,0-.35,1.91h-9.18V541H939.1C939.42,541.66,939.76,542.3,940.13,542.91Z" transform="translate(-910.46 -510.42)"/>
    <path d="M935.51,537.19h-4.77a1,1,0,0,0,0,1.91h4.77a1,1,0,0,0,0-1.91Z" transform="translate(-910.46 -510.42)"/>
    <path d="M936.83,531.47h-6.09a1,1,0,0,1,0-1.9h6.13A17.16,17.16,0,0,0,936.83,531.47Z" transform="translate(-910.46 -510.42)"/>
    <path d="M937.21,535.29h-6.47a1,1,0,0,1,0-1.91h6.2C937,534,937.1,534.66,937.21,535.29Z" transform="translate(-910.46 -510.42)"/>
  </g>
  <g>
    <path d="M1008.86,531.58v9.92H999v-9.92h9.91m0-1.42H999a1.43,1.43,0,0,0-1.42,1.42v9.92a1.42,1.42,0,0,0,1.42,1.41h9.91a1.42,1.42,0,0,0,1.42-1.41v-9.92a1.43,1.43,0,0,0-1.42-1.42Z" transform="translate(-910.46 -510.42)"/>
    <path d="M1004.61,540.08h-3.54a.71.71,0,0,1-.71-.71h0a.71.71,0,0,1,.71-.71h3.54a.71.71,0,0,1,.71.71h0A.71.71,0,0,1,1004.61,540.08Zm2.13-2.83h-5.67a.71.71,0,0,1-.71-.71h0a.71.71,0,0,1,.71-.71h5.67a.71.71,0,0,1,.71.71h0A.71.71,0,0,1,1006.74,537.25Zm0-2.84h-5.67a.7.7,0,0,1-.71-.7h0a.71.71,0,0,1,.71-.71h5.67a.71.71,0,0,1,.71.71h0A.7.7,0,0,1,1006.74,534.41Z" transform="translate(-910.46 -510.42)"/>
  </g>
  <g>
    <path d="M994.54,527.66V541a1.91,1.91,0,0,1-1.91,1.9h-12a20.45,20.45,0,0,0,1-1.9h11V527.66h-9a17.8,17.8,0,0,0-.35-1.91h9.34A1.92,1.92,0,0,1,994.54,527.66Z" transform="translate(-910.46 -510.42)"/>
    <path d="M987.86,538.15a1,1,0,0,1-1,1h-4.48c.23-.62.44-1.26.61-1.91h3.87A1,1,0,0,1,987.86,538.15Z" transform="translate(-910.46 -510.42)"/>
    <path d="M990.72,534.33a1,1,0,0,1-1,1h-6.29c.12-.63.21-1.27.28-1.91h6A1,1,0,0,1,990.72,534.33Z" transform="translate(-910.46 -510.42)"/>
    <path d="M990.72,530.52a.94.94,0,0,1-1,1h-5.9c0-.63,0-1.27,0-1.9h5.93A.94.94,0,0,1,990.72,530.52Z" transform="translate(-910.46 -510.42)"/>
  </g>
  <path d="M994,561.68l-12.5-12.53a5,5,0,0,0-2.88-1.41l-3-3,.34-.39a20.42,20.42,0,0,0,4.88-15.23,20.53,20.53,0,1,0-22.32,22.32,20.36,20.36,0,0,0,15.23-4.87l.47-.4,2.94,2.94a4.94,4.94,0,0,0,1.44,3.05l12.52,12.5a2.07,2.07,0,1,0,2.93-2.93Zm-31.5-14.12a17.41,17.41,0,0,1-2.16.14,16.75,16.75,0,0,1-16.62-18.92,16.76,16.76,0,1,1,18.78,18.78Z" transform="translate(-910.46 -510.42)"/>
  <g class="cls-3">
    <path d="M961.29,519.21H954a3.13,3.13,0,0,0-3.12,3.13v17.28a3.12,3.12,0,0,0,3.12,3.12h12.57a3.13,3.13,0,0,0,3.13-3.12v-12a3.27,3.27,0,0,0-1-2.32l-5.14-5.14A3.29,3.29,0,0,0,961.29,519.21Zm5.29,21.18H954a.77.77,0,0,1-.77-.77V522.34a.77.77,0,0,1,.77-.78h6.69a.77.77,0,0,1,.77.78v4.33a.78.78,0,0,0,.78.78h4.33a.77.77,0,0,1,.78.77v11.4A.78.78,0,0,1,966.58,540.39Z" transform="translate(-910.46 -510.42)"/>
  </g>
  <g class="cls-3">
    <path d="M965.19,536.11a.78.78,0,0,1-1.25.67,6.18,6.18,0,0,0-7.29,0,.78.78,0,0,1-1.25-.67.72.72,0,0,1,.29-.54,7.74,7.74,0,0,1,9.21,0A.75.75,0,0,1,965.19,536.11Z" transform="translate(-910.46 -510.42)"/>
    <path d="M958.87,531a1,1,0,1,1-1-1A1,1,0,0,1,958.87,531Z" transform="translate(-910.46 -510.42)"/>
    <path d="M963.27,531a1,1,0,1,1-1-1A1,1,0,0,1,963.27,531Z" transform="translate(-910.46 -510.42)"/>
  </g>
</svg>
