<svg id="Layer_1" data-name="Layer 1" xmlns="http://www.w3.org/2000/svg" viewBox="0 0 74.55 12.85">
  <defs>
    <style>
      .cls-1 {
        fill: none;
      }
    </style>
  </defs>
  <g>
    <path d="M930.84,542.94l1.84,2.21H930.2l-1.08-1.45a4.73,4.73,0,0,1-.93.1,4.2,4.2,0,1,1,2.65-.86Zm-2.65-1a2.46,2.46,0,1,0-2.23-2.45A2.2,2.2,0,0,0,928.19,541.93Z" transform="translate(-923.1 -533.93)"/>
    <path d="M940.27,543.72h-2v-.92a2.44,2.44,0,0,1-2,1,2.55,2.55,0,0,1-2.59-2.86V537h2v3.64a1.3,1.3,0,1,0,2.58,0V537h2Z" transform="translate(-923.1 -533.93)"/>
    <path d="M941.56,535.22a1.22,1.22,0,1,1,1.22,1.11A1.13,1.13,0,0,1,941.56,535.22Zm.19,1.8h2v6.7h-2Z" transform="translate(-923.1 -533.93)"/>
    <path d="M948.24,536.93a3.05,3.05,0,0,1,3.21,2.52h-2.18a1.06,1.06,0,0,0-1.07-.77c-.73,0-1.23.57-1.23,1.69s.5,1.69,1.23,1.69a1,1,0,0,0,1.07-.77h2.18a3.1,3.1,0,0,1-3.21,2.52,3.44,3.44,0,0,1,0-6.88Z" transform="translate(-923.1 -533.93)"/>
    <path d="M952.55,534.84h2.05v4.91l2-2.73h2.53l-2.79,3.36,2.81,3.34h-2.54l-2-2.81v2.81h-2.05Z" transform="translate(-923.1 -533.93)"/>
  </g>
  <g>
    <path d="M971.6,543.72h-2.06V537h2.06v1.12a2.48,2.48,0,0,1,2.1-1.19v2.17h-.57c-1,0-1.53.34-1.53,1.49Z" transform="translate(-923.1 -533.93)"/>
    <path d="M977.66,543.81a3.44,3.44,0,0,1,0-6.88,3.15,3.15,0,0,1,3.33,3.33,4.12,4.12,0,0,1,0,.6h-4.64a1.23,1.23,0,0,0,1.27,1.28,1.09,1.09,0,0,0,1.07-.64h2.18A3.12,3.12,0,0,1,977.66,543.81Zm-1.34-4.09h2.57a1.15,1.15,0,0,0-1.26-1.15A1.27,1.27,0,0,0,976.32,539.72Z" transform="translate(-923.1 -533.93)"/>
    <path d="M984.62,536.93a2.32,2.32,0,0,1,2.06,1v-1h2.05v6.7h-2.05v-1a2.36,2.36,0,0,1-2.08,1c-1.63,0-2.93-1.34-2.93-3.45S983,536.93,984.62,536.93Zm.6,1.78a1.67,1.67,0,1,0,1.46,1.66A1.5,1.5,0,0,0,985.22,538.71Z" transform="translate(-923.1 -533.93)"/>
    <path d="M992.76,536.93a2.45,2.45,0,0,1,2.07,1v-3.11h2v8.88h-2v-1a2.33,2.33,0,0,1-2.07,1c-1.64,0-3-1.34-3-3.45S991.12,536.93,992.76,536.93Zm.6,1.78a1.67,1.67,0,1,0,1.47,1.66A1.5,1.5,0,0,0,993.36,538.71Z" transform="translate(-923.1 -533.93)"/>
  </g>
  <path d="M961.8,535.72v5a.56.56,0,0,0,.56.56h1.11v4a.28.28,0,0,0,.52.14l2.9-5a.56.56,0,0,0-.48-.84h-1.26l1.39-3.71a.56.56,0,0,0-.52-.76h-3.66A.57.57,0,0,0,961.8,535.72Z" transform="translate(-923.1 -533.93)"/>
  <rect class="cls-1" width="74.55" height="12.85"/>
</svg>
