<svg id="Layer_1" data-name="Layer 1" xmlns="http://www.w3.org/2000/svg" viewBox="0 0 901.04 144.4">
  <path d="M660.19,495.81H581.4l14.28-14.29a4.65,4.65,0,0,0,0-6.6l-5.17-5.17a4.65,4.65,0,0,0-6.6,0l-23.5,23.5a7.45,7.45,0,0,1-10.52,0l-23.5-23.5a4.67,4.67,0,0,0-6.61,0l-5.17,5.17a4.67,4.67,0,0,0,0,6.6l14.29,14.29h-2.39a16.66,16.66,0,0,0-16.66,16.66v83.65a16.66,16.66,0,0,0,16.66,16.66H660.19a16.66,16.66,0,0,0,16.66-16.66V512.47A16.66,16.66,0,0,0,660.19,495.81Zm.06,94.59a5.6,5.6,0,0,1-5.6,5.59H532.06a5.6,5.6,0,0,1-5.6-5.59V518.27a5.6,5.6,0,0,1,5.6-5.6H654.65a5.6,5.6,0,0,1,5.6,5.6Z" transform="translate(-509.85 -468.38)"/>
  <path d="M649.74,520.94H537a2.55,2.55,0,0,0-2.55,2.55v61.69a2.55,2.55,0,0,0,2.55,2.55H649.74a2.55,2.55,0,0,0,2.55-2.55V523.49A2.55,2.55,0,0,0,649.74,520.94Zm-66.85,38.33h-9.21v-7.5H552.41v7.5H543.2v-9.21h7.73v-7h7.51v-7.3h9.21v7.3h7.5v7h7.74Zm61,0h-9.21v-7.5H613.38v7.5h-9.21v-9.21h7.73v-7h7.51v-7.3h9.21v7.3h7.5v7h7.74Z" transform="translate(-509.85 -468.38)"/>
  <g>
    <path d="M707.06,503.62h28.61l27.91,68.83,27.6-68.83h28.47V603H795.44V543.42L773.21,603H753.66l-22.37-59.76V603H707.06Z" transform="translate(-509.85 -468.38)"/>
    <path d="M875.16,604C847,604,824,582.93,824,553S847,502.2,875.16,502.2,926,523.17,926,553,903.34,604,875.16,604Zm0-22.09c15.85,0,26.19-11.47,26.19-28.9,0-17.7-10.34-28.88-26.19-28.88-16.15,0-26.35,11.18-26.35,28.88C848.81,570.47,859,581.94,875.16,581.94Z" transform="translate(-509.85 -468.38)"/>
    <path d="M992.21,503.62h25.63L982.58,603h-30.3L917,503.62h25.77l24.64,75.06Z" transform="translate(-509.85 -468.38)"/>
    <path d="M1021.94,503.62h24.23V603h-24.23Z" transform="translate(-509.85 -468.38)"/>
    <path d="M1113.64,523H1077v20.11h32.42v18.7H1077v21.81h36.67V603h-60.9V503.62h60.9Z" transform="translate(-509.85 -468.38)"/>
    <path d="M1156.37,604c-21.39,0-38.1-10.62-38.81-30.73h25.78c.7,7.64,5.52,11.33,12.31,11.33,7.09,0,11.62-3.54,11.62-9.35,0-18.41-49.71-8.5-49.43-43.76,0-18.83,15.44-29.32,36.25-29.32,21.67,0,36.26,10.77,37.25,29.75h-26.2c-.43-6.38-5-10.2-11.46-10.34-5.81-.14-10.21,2.83-10.21,9.06,0,17.28,49.15,9.49,49.15,42.77C1192.62,590.15,1179.59,604,1156.37,604Z" transform="translate(-509.85 -468.38)"/>
    <path d="M1326.93,553.33c0,29.46-20.4,49.71-52.12,49.71h-37.24V503.62h37.24C1306.53,503.62,1326.93,523.73,1326.93,553.33Zm-53.67,28.75c18.27,0,29-10.48,29-28.75s-10.76-29-29-29h-11.47v57.78Z" transform="translate(-509.85 -468.38)"/>
    <path d="M1377.89,603h-46.31V503.62h44.76c20.26,0,32.28,10.06,32.28,25.77,0,12-7.22,19.83-16.84,22.66A24.11,24.11,0,0,1,1410.89,576C1410.89,592.42,1398.86,603,1377.89,603Zm-6.22-80h-15.86v20.82h15.86c7.93,0,12.31-3.54,12.31-10.33S1379.6,523,1371.67,523Zm1.69,38.52h-17.55v22h17.84c8.07,0,12.74-3.68,12.74-10.76S1381.43,561.54,1373.36,561.54Z" transform="translate(-509.85 -468.38)"/>
  </g>
</svg>
