<svg id="Layer_1" data-name="Layer 1" xmlns="http://www.w3.org/2000/svg" viewBox="0 0 171 148.44">
  <defs>
    <style>
      .cls-1 {
        fill: #0d6efd;
      }

      .cls-2 {
        fill: #fff;
      }
    </style>
  </defs>
  <g>
    <path class="cls-1" d="M893.53,613.57a17.68,17.68,0,0,1-17.66-17.66V512.23a17.69,17.69,0,0,1,17.64-17.66L880.92,482a5.68,5.68,0,0,1,0-8l5.17-5.17a5.69,5.69,0,0,1,8,0l23.5,23.51a6.46,6.46,0,0,0,9.11,0l23.49-23.51a5.65,5.65,0,0,1,8,0l5.17,5.17a5.67,5.67,0,0,1,0,8l-12.58,12.58h76.38a17.68,17.68,0,0,1,17.66,17.66v83.68a17.68,17.68,0,0,1-17.66,17.66Zm4.94-100a4.61,4.61,0,0,0-4.6,4.6V590a4.61,4.61,0,0,0,4.6,4.6h122.81a4.6,4.6,0,0,0,4.59-4.59V518.17a4.61,4.61,0,0,0-4.6-4.6Z" transform="translate(-874.87 -466.13)"/>
    <path class="cls-2" d="M954.23,468.13a4.62,4.62,0,0,1,3.3,1.38l5.17,5.17a4.65,4.65,0,0,1,0,6.6l-14.28,14.29h78.79a16.66,16.66,0,0,1,16.66,16.66v83.68a16.66,16.66,0,0,1-16.66,16.66H893.53a16.66,16.66,0,0,1-16.66-16.66V512.23a16.66,16.66,0,0,1,16.66-16.66h2.39l-14.29-14.29a4.67,4.67,0,0,1,0-6.6l5.17-5.17a4.67,4.67,0,0,1,6.61,0l23.5,23.5a7.44,7.44,0,0,0,10.52,0l23.5-23.5a4.64,4.64,0,0,1,3.3-1.38M898.47,595.57h122.81a5.59,5.59,0,0,0,5.59-5.59V518.17a5.6,5.6,0,0,0-5.6-5.6H898.47a5.6,5.6,0,0,0-5.6,5.6V590a5.6,5.6,0,0,0,5.6,5.6m55.76-129.44a6.61,6.61,0,0,0-4.72,2L926,491.6a5.44,5.44,0,0,1-7.69,0l-23.5-23.51a6.69,6.69,0,0,0-9.44,0l-5.17,5.18a6.66,6.66,0,0,0,0,9.42l11,11a18.7,18.7,0,0,0-16.36,18.52v83.68a18.68,18.68,0,0,0,18.66,18.66h133.68a18.68,18.68,0,0,0,18.66-18.66V512.23a18.68,18.68,0,0,0-18.66-18.66h-74l10.87-10.88a6.66,6.66,0,0,0,0-9.43L959,468.09a6.63,6.63,0,0,0-4.72-2ZM898.47,593.57a3.6,3.6,0,0,1-3.6-3.6v-71.8a3.61,3.61,0,0,1,3.6-3.6h122.8a3.6,3.6,0,0,1,3.6,3.6V590a3.59,3.59,0,0,1-3.59,3.59Z" transform="translate(-874.87 -466.13)"/>
  </g>
  <path class="cls-2" d="M1026.87,518.17V590a5.59,5.59,0,0,1-5.59,5.59H898.47a5.6,5.6,0,0,1-5.6-5.6v-71.8a5.6,5.6,0,0,1,5.6-5.6h122.8A5.6,5.6,0,0,1,1026.87,518.17Z" transform="translate(-874.87 -466.13)"/>
  <path class="cls-1" d="M1016.32,520.57H903.42a2.55,2.55,0,0,0-2.55,2.55V585a2.55,2.55,0,0,0,2.55,2.55h112.9a2.55,2.55,0,0,0,2.55-2.55v-61.9A2.55,2.55,0,0,0,1016.32,520.57Zm-66.45,39h-10v-8h-21v8h-9v-10h8v-7h8v-7h8v7h8v7h8Zm61,0h-10v-8h-21v8h-9v-10h8v-7h8v-7h8v7h8v7h8Z" transform="translate(-874.87 -466.13)"/>
</svg>
