<svg id="Layer_1" data-name="Layer 1" xmlns="http://www.w3.org/2000/svg" viewBox="0 0 167 117">
  <path d="M1008.43,504.85h35.44v-6.34a16.66,16.66,0,0,0-16.66-16.66H893.53a16.66,16.66,0,0,0-16.66,16.66v6.34h35.44a8.56,8.56,0,0,1,8.56,8.56v53.88a8.56,8.56,0,0,1-8.56,8.56H876.87v6.34a16.66,16.66,0,0,0,16.66,16.66h133.68a16.65,16.65,0,0,0,16.66-16.66v-6.34h-35.44a8.56,8.56,0,0,1-8.56-8.56V513.41A8.56,8.56,0,0,1,1008.43,504.85Zm18.44-15h8v8h-8Zm-15,0h8v8h-8Zm-119,8h-8v-8h8Zm16,0h-8v-8h8Zm-16,93h-8v-8h8Zm16,0h-8v-8h8Zm118-8h8v8h-8Zm-15,0h8v8h-8Zm-32-93h8v8h-8Zm-16,0h8v8h-8Zm-16,0h8v8h-8Zm-16,0h8v8h-8Zm-7,101h-8v-8h8Zm0-93h-8v-8h8Zm15,93h-8v-8h8Zm16,0h-8v-8h8Zm16,0h-8v-8h8Zm16,0h-8v-8h8Zm-8.56-15H941.43a8.56,8.56,0,0,1-8.56-8.56V513.41a8.56,8.56,0,0,1,8.56-8.56h37.88a8.56,8.56,0,0,1,8.56,8.56v53.88A8.56,8.56,0,0,1,979.31,575.85Zm24.56,7v8h-8v-8Zm-8-85v-8h8v8Z" transform="translate(-876.87 -481.85)"/>
  <path d="M936.87,552.26v-.54a2.61,2.61,0,0,1,.77-1.84l6.53-6.51a2.62,2.62,0,0,1,3.67,0l0,0a2.59,2.59,0,0,0,3.66,0l9.7-9.66a2.59,2.59,0,0,1,3.66,0l16.22,16.14a2.6,2.6,0,0,1,.76,1.84v.54a2.59,2.59,0,0,1-2.6,2.59h-39.8A2.59,2.59,0,0,1,936.87,552.26Z" transform="translate(-876.87 -481.85)"/>
  <circle cx="69" cy="52" r="4"/>
  <path d="M915.87,551.72v.54a2.59,2.59,0,0,1-2.59,2.59H876.87v-9.91l1.55-1.55a2.57,2.57,0,0,1,3.66,0,2.6,2.6,0,0,0,1.84.76,2.57,2.57,0,0,0,1.82-.76l9.62-9.63a2.57,2.57,0,0,1,3.66,0l16.09,16.12A2.64,2.64,0,0,1,915.87,551.72Z" transform="translate(-876.87 -481.85)"/>
  <path d="M880.47,537.9a4,4,0,0,1-3.6-.57v-6.54a4,4,0,0,1,6.32,4A4,4,0,0,1,880.47,537.9Z" transform="translate(-876.87 -481.85)"/>
  <path d="M1043.87,544.88v10h-36.4a2.6,2.6,0,0,1-2.6-2.6v-.53a2.6,2.6,0,0,1,.76-1.84l6.49-6.49a2.58,2.58,0,0,1,3.67,0,2.61,2.61,0,0,0,3.68,0l9.62-9.63a2.57,2.57,0,0,1,3.66,0Z" transform="translate(-876.87 -481.85)"/>
  <circle cx="136" cy="52" r="4"/>
</svg>
