<?xml version="1.0" encoding="UTF-8"?>
<svg id="Layer_2" data-name="Layer 2" xmlns="http://www.w3.org/2000/svg" xmlns:xlink="http://www.w3.org/1999/xlink" viewBox="0 0 314 305.69">
  <defs>
    <style>
      .cls-1 {
        fill: url(#linear-gradient-2);
      }

      .cls-2 {
        fill: #916d37;
      }

      .cls-3 {
        fill: #fff;
      }

      .cls-4 {
        fill: #bfa475;
      }

      .cls-5, .cls-6 {
        opacity: .5;
      }

      .cls-7 {
        fill: #f5f5f5;
      }

      .cls-8 {
        opacity: .8;
      }

      .cls-8, .cls-9, .cls-10, .cls-11 {
        fill: #f7ddad;
      }

      .cls-9, .cls-12 {
        opacity: .08;
      }

      .cls-13, .cls-6, .cls-14 {
        fill: #b78d44;
      }

      .cls-15 {
        fill: #f8c559;
      }

      .cls-14, .cls-11 {
        opacity: .2;
      }

      .cls-16 {
        fill: #ddab52;
      }

      .cls-10 {
        opacity: .12;
      }

      .cls-17 {
        fill: #212121;
      }

      .cls-18 {
        opacity: .49;
      }

      .cls-19 {
        fill: #d3d3d3;
      }

      .cls-20 {
        fill: #191919;
      }

      .cls-21 {
        fill: url(#linear-gradient-3);
      }

      .cls-22 {
        fill: url(#linear-gradient);
      }

      .cls-23 {
        fill: #6b4f2a;
      }

      .cls-24 {
        fill: url(#linear-gradient-4);
      }
    </style>
    <linearGradient id="linear-gradient" x1="11" y1="227.23" x2="207" y2="227.23" gradientTransform="translate(46.57 -41.31)" gradientUnits="userSpaceOnUse">
      <stop offset="0" stop-color="#000" stop-opacity=".2"/>
      <stop offset="1" stop-color="#000" stop-opacity="0"/>
    </linearGradient>
    <linearGradient id="linear-gradient-2" x1="32.15" y1="98.73" x2="185.84" y2="98.73" gradientTransform="translate(28.65 -31.8) rotate(-4.61)" xlink:href="#linear-gradient"/>
    <linearGradient id="linear-gradient-3" x1="17.4" y1="220.14" x2="213.4" y2="220.14" gradientTransform="translate(45.98 -41.8)" gradientUnits="userSpaceOnUse">
      <stop offset="0" stop-color="#fff" stop-opacity=".2"/>
      <stop offset="1" stop-color="#fff" stop-opacity="0"/>
    </linearGradient>
    <linearGradient id="linear-gradient-4" x1="38.56" y1="91.65" x2="192.25" y2="91.65" gradientTransform="translate(28.65 -31.8) rotate(-4.61)" xlink:href="#linear-gradient"/>
  </defs>
  <g id="Layer_1-2" data-name="Layer 1">
    <g id="background" class="cls-18">
      <path class="cls-9" d="M314,218.16c0,23.34-5.09,45.5-14.23,65.41H14.23C5.09,263.66,0,241.5,0,218.16,0,131.45,70.29,61.16,157,61.16s157,70.29,157,157Z"/>
      <path class="cls-10" d="M293.06,218.16c0,23.71-6.06,46-16.73,65.41H37.67c-10.67-19.41-16.73-41.7-16.73-65.41,0-75.14,60.92-136.06,136.06-136.06s136.06,60.92,136.06,136.06Z"/>
      <path class="cls-11" d="M268.49,218.16c0,24.44-7.86,47.04-21.2,65.41H66.71c-13.34-18.37-21.2-40.97-21.2-65.41,0-61.57,49.92-111.49,111.49-111.49s111.49,49.92,111.49,111.49Z"/>
      <path class="cls-8" d="M241.6,218.16c0,26.35-12.05,49.9-30.95,65.41H103.35c-18.89-15.52-30.94-39.06-30.94-65.41,0-46.72,37.87-84.59,84.59-84.59s84.6,37.87,84.6,84.59Z"/>
    </g>
    <g id="rocks">
      <path class="cls-23" d="M158.97,276.12h3.63c1.57,0,2.84,1.27,2.84,2.84v2.6h-9.3v-2.6c0-1.57,1.27-2.84,2.84-2.84Z"/>
      <path class="cls-23" d="M171.82,278.72h8.24c1.57,0,2.84,1.27,2.84,2.84h-13.91c0-1.57,1.27-2.84,2.84-2.84Z"/>
      <path class="cls-2" d="M175.07,278.72h8.24c1.57,0,2.84,1.27,2.84,2.84h-13.91c0-1.57,1.27-2.84,2.84-2.84Z"/>
      <path class="cls-2" d="M161.31,276.12h3.63c1.57,0,2.84,1.27,2.84,2.84v2.6h-9.3v-2.6c0-1.57,1.27-2.84,2.84-2.84Z"/>
      <path class="cls-23" d="M90.32,278.72h.5c1.57,0,2.84,1.27,2.84,2.84h-6.18c0-1.57,1.27-2.84,2.84-2.84Z"/>
      <path class="cls-2" d="M91.88,278.72h.5c1.57,0,2.84,1.27,2.84,2.84h-6.18c0-1.57,1.27-2.84,2.84-2.84Z"/>
      <path class="cls-23" d="M149.91,278.72h.5c1.57,0,2.84,1.27,2.84,2.84h-6.18c0-1.57,1.27-2.84,2.84-2.84Z"/>
      <path class="cls-2" d="M151.46,278.72h.5c1.57,0,2.84,1.27,2.84,2.84h-6.18c0-1.57,1.27-2.84,2.84-2.84Z"/>
      <path class="cls-23" d="M255.71,278.72h.5c1.57,0,2.84,1.27,2.84,2.84h-6.18c0-1.57,1.27-2.84,2.84-2.84Z"/>
      <path class="cls-2" d="M257.26,278.72h.5c1.57,0,2.84,1.27,2.84,2.84h-6.18c0-1.57,1.27-2.84,2.84-2.84Z"/>
    </g>
    <g id="ground">
      <rect class="cls-14" x="1.2" y="272.24" width="60.86" height="5.5" rx="2.75" ry="2.75"/>
      <rect class="cls-14" x="242.38" y="272.24" width="27.39" height="5.5" rx="2.75" ry="2.75"/>
      <rect class="cls-14" x="174.27" y="272.24" width="63.35" height="5.5" rx="2.75" ry="2.75"/>
      <rect class="cls-13" x="9.9" y="281.56" width="281.74" height="5.5" rx="2.75" ry="2.75"/>
      <rect class="cls-13" x="293.98" y="281.56" width="9.58" height="5.5" rx="2.75" ry="2.75"/>
      <rect class="cls-6" x="244.14" y="290.88" width="67" height="5.5" rx="2.75" ry="2.75"/>
      <rect class="cls-6" x="93.64" y="290.88" width="92.17" height="5.5" rx="2.75" ry="2.75"/>
      <rect class="cls-6" x="188.31" y="290.88" width="9.5" height="5.5" rx="2.75" ry="2.75"/>
      <rect class="cls-14" x="235.1" y="300.19" width="28.42" height="5.5" rx="2.75" ry="2.75"/>
      <rect class="cls-14" x="53.93" y="300.19" width="18.39" height="5.5" rx="2.75" ry="2.75"/>
      <rect class="cls-6" x="225.64" y="290.88" width="14" height="5.5" rx="2.75" ry="2.75"/>
      <rect class="cls-6" x="39.81" y="290.88" width="24.75" height="5.5" rx="2.75" ry="2.75"/>
      <rect class="cls-6" x="24.39" y="290.88" width="10.92" height="5.5" rx="2.75" ry="2.75"/>
    </g>
    <g id="circles" class="cls-5">
      <circle class="cls-4" cx="155.47" cy="160.32" r="3.22"/>
      <circle class="cls-4" cx="228.39" cy="105.11" r="3.22"/>
      <circle class="cls-4" cx="172.8" cy="167.53" r="2.48"/>
      <circle class="cls-4" cx="203.83" cy="187.06" r="2.48"/>
      <circle class="cls-4" cx="150.56" cy="223.47" r="3.84"/>
      <circle class="cls-4" cx="220.33" cy="141.26" r="1.15"/>
      <circle class="cls-4" cx="163.61" cy="105.11" r="4.91"/>
      <circle class="cls-4" cx="259.02" cy="141.26" r="1.15"/>
      <circle class="cls-4" cx="268.61" cy="198.75" r="5.53"/>
      <circle class="cls-4" cx="241.36" cy="225.54" r=".69"/>
      <circle class="cls-4" cx="107.81" cy="154" r="1"/>
      <circle class="cls-4" cx="97.98" cy="103.5" r="1.61"/>
      <circle class="cls-4" cx="281.05" cy="87.15" r=".77"/>
      <circle class="cls-4" cx="232.57" cy="69.53" r=".96"/>
      <circle class="cls-4" cx="92.15" cy="194.22" r="1"/>
      <circle class="cls-4" cx="184.64" cy="247.72" r="4.14"/>
      <circle class="cls-4" cx="264.31" cy="269.98" r="2.76"/>
      <circle class="cls-4" cx="242.05" cy="271.36" r="1.38"/>
      <circle class="cls-4" cx="141.04" cy="255.09" r="1.07"/>
      <circle class="cls-4" cx="150.1" cy="200.9" r="2.15"/>
      <circle class="cls-4" cx="65.67" cy="125.37" r="1.23"/>
      <circle class="cls-4" cx="69.2" cy="215.18" r="2.3"/>
      <circle class="cls-4" cx="71.54" cy="247.45" r="2.34"/>
      <circle class="cls-4" cx="93.18" cy="224.5" r="1.04"/>
      <circle class="cls-4" cx="137.95" cy="71.55" r="1.06"/>
      <circle class="cls-4" cx="91.65" cy="63.09" r=".5"/>
      <circle class="cls-4" cx="46.63" cy="166.3" r="2.76"/>
      <circle class="cls-4" cx="192.47" cy="281.03" r="1.23"/>
      <circle class="cls-4" cx="292.87" cy="237.13" r="2.76"/>
      <circle class="cls-4" cx="308.22" cy="191.38" r="1.84"/>
      <circle class="cls-4" cx="306.68" cy="276.12" r="3.38"/>
      <circle class="cls-4" cx="26.98" cy="272.13" r="4.91"/>
      <circle class="cls-4" cx="32.03" cy="195.89" r="1.67"/>
      <circle class="cls-4" cx="81.02" cy="167.84" r="1.54"/>
      <circle class="cls-4" cx="26.21" cy="115.95" r=".77"/>
    </g>
    <g id="stars">
      <path class="cls-15" d="M198.47,135.58l-3.5,1.59-1.59,3.5c-.35,.78-1.46,.78-1.82,0l-1.59-3.5-3.5-1.59c-.78-.35-.78-1.46,0-1.82l3.5-1.59,1.59-3.5c.35-.78,1.47-.78,1.82,0l1.59,3.5,3.5,1.59c.78,.35,.78,1.46,0,1.82Z"/>
      <path class="cls-15" d="M206.83,130.35l-1.75,.79-.79,1.75c-.18,.39-.74,.39-.92,0l-.79-1.76-1.75-.79c-.39-.18-.39-.73,0-.91l1.76-.79,.79-1.75c.18-.39,.73-.39,.91,0l.79,1.76,1.75,.79c.39,.18,.39,.73,0,.91Z"/>
      <path class="cls-15" d="M226.62,250.25l-1.76,.79-.79,1.75c-.18,.39-.73,.39-.91,0l-.79-1.76-1.75-.79c-.39-.18-.39-.73,0-.91l1.75-.79,.79-1.75c.18-.39,.74-.39,.92,0l.79,1.76,1.75,.79c.39,.18,.39,.73,0,.91Z"/>
      <g>
        <path class="cls-15" d="M197.36,144.25h-1.06c-.28,0-.5-.22-.5-.5s.22-.5,.5-.5h1.06c.28,0,.5,.22,.5,.5s-.22,.5-.5,.5Z"/>
        <path class="cls-15" d="M200.85,144.25h-1.06c-.28,0-.5-.22-.5-.5s.22-.5,.5-.5h1.06c.28,0,.5,.22,.5,.5s-.22,.5-.5,.5Z"/>
        <path class="cls-15" d="M198.08,142.53v-1.06c0-.28,.22-.5,.5-.5s.5,.22,.5,.5v1.06c0,.28-.22,.5-.5,.5s-.5-.22-.5-.5Z"/>
        <path class="cls-15" d="M198.08,146.03v-1.06c0-.28,.22-.5,.5-.5s.5,.22,.5,.5v1.06c0,.28-.22,.5-.5,.5s-.5-.22-.5-.5Z"/>
      </g>
      <g>
        <path class="cls-15" d="M232.8,200.39h-1.99c-.52,0-.94-.42-.94-.94s.42-.94,.94-.94h1.99c.52,0,.94,.42,.94,.94s-.42,.94-.94,.94Z"/>
        <path class="cls-15" d="M239.38,200.39h-1.99c-.52,0-.94-.42-.94-.94s.42-.94,.94-.94h1.99c.52,0,.94,.42,.94,.94s-.42,.94-.94,.94Z"/>
        <path class="cls-15" d="M234.15,197.15v-1.99c0-.52,.42-.94,.94-.94s.94,.42,.94,.94v1.99c0,.52-.42,.94-.94,.94s-.94-.42-.94-.94Z"/>
        <path class="cls-15" d="M234.15,203.73v-1.99c0-.52,.42-.94,.94-.94s.94,.42,.94,.94v1.99c0,.52-.42,.94-.94,.94s-.94-.42-.94-.94Z"/>
      </g>
      <g>
        <path class="cls-15" d="M73.87,201.89h-1.06c-.28,0-.5-.22-.5-.5s.22-.5,.5-.5h1.06c.28,0,.5,.22,.5,.5s-.22,.5-.5,.5Z"/>
        <path class="cls-15" d="M77.93,201.89h-1.06c-.28,0-.5-.22-.5-.5s.22-.5,.5-.5h1.06c.28,0,.5,.22,.5,.5s-.22,.5-.5,.5Z"/>
        <path class="cls-15" d="M74.87,199.89v-1.06c0-.28,.22-.5,.5-.5s.5,.22,.5,.5v1.06c0,.28-.22,.5-.5,.5s-.5-.22-.5-.5Z"/>
        <path class="cls-15" d="M74.87,203.95v-1.06c0-.28,.22-.5,.5-.5s.5,.22,.5,.5v1.06c0,.28-.22,.5-.5,.5s-.5-.22-.5-.5Z"/>
      </g>
      <g>
        <path class="cls-15" d="M86.66,230.13h-1.75c-.46,0-.83-.37-.83-.83s.37-.83,.83-.83h1.75c.46,0,.83,.37,.83,.83s-.37,.83-.83,.83Z"/>
        <path class="cls-15" d="M93.38,230.13h-1.75c-.46,0-.83-.37-.83-.83s.37-.83,.83-.83h1.75c.46,0,.83,.37,.83,.83s-.37,.83-.83,.83Z"/>
        <path class="cls-15" d="M88.32,226.81v-1.75c0-.46,.37-.83,.83-.83s.83,.37,.83,.83v1.75c0,.46-.37,.83-.83,.83s-.83-.37-.83-.83Z"/>
        <path class="cls-15" d="M88.32,233.54v-1.75c0-.46,.37-.83,.83-.83s.83,.37,.83,.83v1.75c0,.46-.37,.83-.83,.83s-.83-.37-.83-.83Z"/>
      </g>
    </g>
    <g>
      <rect class="cls-16" x="57.57" y="107.59" width="196" height="156.65" rx="15.31" ry="15.31" transform="translate(-14.45 13.11) rotate(-4.61)"/>
      <rect class="cls-22" x="57.57" y="107.59" width="196" height="156.65" rx="15.31" ry="15.31" transform="translate(-14.45 13.11) rotate(-4.61)"/>
      <path class="cls-19" d="M223.98,78.24l1.89,23.43-23.7,1.91-1.91-23.7c-2.36-29.22-27.95-50.99-57.17-48.63-29.21,2.36-50.98,27.95-48.62,57.16l1.91,23.7-23.7,1.91-1.89-23.43c-3.41-42.3,28.11-79.36,70.41-82.77,42.3-3.41,79.37,28.11,82.78,70.41Z"/>
      <path class="cls-1" d="M223.98,78.24l1.89,23.43-23.7,1.91-1.91-23.7c-2.36-29.22-27.95-50.99-57.17-48.63-29.21,2.36-50.98,27.95-48.62,57.16l1.91,23.7-23.7,1.91-1.89-23.43c-3.41-42.3,28.11-79.36,70.41-82.77,42.3-3.41,79.37,28.11,82.78,70.41Z"/>
      <path d="M180.91,221.78c1.31,2.77-.56,5.98-3.61,6.23l-36.44,2.94c-3.05,.25-5.4-2.62-4.56-5.57l8.58-29.89c.16-.56-.13-1.14-.66-1.39-8.76-4-14.87-13.02-14.37-23.67,.32-6.76,3.45-12.92,8.32-17.2,3.19-2.83,7.12-4.84,11.49-5.67,14.66-2.83,28.12,7.7,29.29,22.17,.37,4.61-.55,9-2.45,12.86-.74,1.5-1.64,2.93-2.68,4.24-1.6,2.07-3.54,3.87-5.74,5.34-.49,.33-.68,.95-.42,1.48l12.72,27.01,.53,1.12Z"/>
      <rect class="cls-15" x="63.38" y="100.02" width="196" height="156.65" rx="15.31" ry="15.31" transform="translate(-13.82 13.55) rotate(-4.61)"/>
      <rect class="cls-21" x="63.38" y="100.02" width="196" height="156.65" rx="15.31" ry="15.31" transform="translate(-13.82 13.55) rotate(-4.61)"/>
      <path class="cls-7" d="M229.79,70.66l1.89,23.43-23.7,1.91-1.91-23.7c-2.36-29.22-27.95-50.99-57.17-48.63-29.21,2.36-50.98,27.95-48.62,57.16l1.91,23.7-23.7,1.91-1.89-23.43C73.18,40.72,104.71,3.67,147.01,.25s79.37,28.11,82.78,70.41Z"/>
      <path class="cls-24" d="M229.79,70.66l1.89,23.43-23.7,1.91-1.91-23.7c-2.36-29.22-27.95-50.99-57.17-48.63-29.21,2.36-50.98,27.95-48.62,57.16l1.91,23.7-23.7,1.91-1.89-23.43C73.18,40.72,104.71,3.67,147.01,.25s79.37,28.11,82.78,70.41Z"/>
      <path class="cls-20" d="M184.76,162.16c.65,8.03-2.64,15.48-8.26,20.43,1.91-3.86,2.83-8.25,2.45-12.86-1.17-14.46-14.63-24.99-29.29-22.17-4.37,.83-8.3,2.85-11.49,5.67,3.32-6.71,9.66-11.79,17.31-13.25,14.66-2.82,28.11,7.71,29.28,22.18Z"/>
      <path class="cls-20" d="M183.12,220.44l-2.74,.22-12.72-27.01c-.25-.53-.06-1.15,.42-1.48,2.2-1.47,4.14-3.27,5.74-5.34l12.9,27.38c1.31,2.76-.56,5.98-3.6,6.23Z"/>
      <path class="cls-17" d="M167.66,193.65l12.72,27.01-33.71,2.72c-3.04,.25-5.4-2.63-4.55-5.57l8.57-29.89c.17-.57-.12-1.14-.65-1.39-8.76-4-14.88-13.02-14.38-23.68,.16-3.41,1.05-6.68,2.52-9.61,3.19-2.83,7.12-4.84,11.49-5.67,14.66-2.83,28.12,7.7,29.29,22.17,.37,4.61-.55,9-2.45,12.86-.81,.73-1.68,1.39-2.6,2.01-.5,.33-.69,.95-.43,1.48l.35,.75c-1.6,2.07-3.54,3.87-5.74,5.34-.49,.33-.68,.95-.42,1.48Z"/>
      <path class="cls-3" d="M213.81,33.64c-1.1-1.5-23.53-31.49-72.74-30.63l4.23-.93c28.52-1.88,53.74,10.31,68.51,31.56Z"/>
      <path class="cls-12" d="M255.28,245.77c.26-.16,5.4-3.36,5.96-11.2l.07,1.56c.23,4.55-2.46,8.1-6.04,9.64Z"/>
      <path class="cls-12" d="M71.85,250.65c.09,.29,2.05,6.02,9.56,8.35l-1.54-.28c-4.48-.8-7.33-4.24-8.02-8.07Z"/>
      <path class="cls-12" d="M71.43,110.28c-.29,.07-6.16,1.57-9.07,8.87l.4-1.51c1.15-4.41,4.8-6.97,8.67-7.36Z"/>
      <path class="cls-12" d="M135.24,170.46c.14,.48,2.96,10.17,10.92,15.1l-1.6-.69c-4.67-1.98-8.06-8.02-9.32-14.41Z"/>
      <path class="cls-3" d="M249.16,102.67c-.16-.25-3.47-5.33-11.32-5.74l1.56-.1c4.54-.32,8.14,2.3,9.76,5.85Z"/>
    </g>
  </g>
</svg>