<?xml version="1.0" encoding="UTF-8"?>
<svg id="Layer_2" data-name="Layer 2" xmlns="http://www.w3.org/2000/svg" xmlns:xlink="http://www.w3.org/1999/xlink" viewBox="0 0 314 303.8">
  <defs>
    <style>
      .cls-1 {
        fill: url(#linear-gradient-2);
      }

      .cls-2 {
        fill: #fff;
      }

      .cls-3 {
        opacity: .8;
      }

      .cls-3, .cls-4, .cls-5, .cls-6, .cls-7, .cls-8 {
        fill: #b0d0ff;
      }

      .cls-4 {
        opacity: .2;
      }

      .cls-9 {
        fill: #7f98b5;
      }

      .cls-10, .cls-7 {
        opacity: .5;
      }

      .cls-11 {
        fill: #0d6efd;
      }

      .cls-12, .cls-8 {
        opacity: .08;
      }

      .cls-13 {
        fill: #667c8e;
      }

      .cls-6 {
        opacity: .12;
      }

      .cls-14 {
        fill: #0c61c6;
      }

      .cls-15 {
        opacity: .49;
      }

      .cls-16 {
        fill: url(#linear-gradient);
      }
    </style>
    <linearGradient id="linear-gradient" x1="108.07" y1="231.46" x2="180.44" y2="231.46" gradientTransform="matrix(1, 0, 0, 1, 0, 0)" gradientUnits="userSpaceOnUse">
      <stop offset="0" stop-color="#fff" stop-opacity=".2"/>
      <stop offset="1" stop-color="#fff" stop-opacity="0"/>
    </linearGradient>
    <linearGradient id="linear-gradient-2" x1="73.42" y1="94.17" x2="261.67" y2="94.17" xlink:href="#linear-gradient"/>
  </defs>
  <g id="Layer_1-2" data-name="Layer 1">
    <g id="background" class="cls-15">
      <path class="cls-8" d="M314,216.27c0,23.34-5.09,45.5-14.23,65.41H14.23C5.09,261.77,0,239.61,0,216.27,0,129.56,70.29,59.27,157,59.27s157,70.29,157,157Z"/>
      <path class="cls-6" d="M293.06,216.27c0,23.71-6.06,46-16.73,65.41H37.67c-10.67-19.41-16.73-41.7-16.73-65.41,0-75.14,60.92-136.06,136.06-136.06s136.06,60.92,136.06,136.06Z"/>
      <path class="cls-4" d="M268.49,216.27c0,24.44-7.86,47.04-21.2,65.41H66.71c-13.34-18.37-21.2-40.97-21.2-65.41,0-61.57,49.92-111.49,111.49-111.49s111.49,49.92,111.49,111.49Z"/>
      <path class="cls-3" d="M241.6,216.27c0,26.35-12.05,49.9-30.95,65.41H103.35c-18.89-15.52-30.94-39.06-30.94-65.41,0-46.72,37.87-84.59,84.59-84.59s84.6,37.87,84.6,84.59Z"/>
    </g>
    <g id="rocks">
      <path class="cls-13" d="M158.97,274.23h3.63c1.57,0,2.84,1.27,2.84,2.84v2.6h-9.3v-2.6c0-1.57,1.27-2.84,2.84-2.84Z"/>
      <path class="cls-13" d="M171.82,276.83h8.24c1.57,0,2.84,1.27,2.84,2.84h-13.91c0-1.57,1.27-2.84,2.84-2.84Z"/>
      <path class="cls-9" d="M175.07,276.83h8.24c1.57,0,2.84,1.27,2.84,2.84h-13.91c0-1.57,1.27-2.84,2.84-2.84Z"/>
      <path class="cls-9" d="M161.31,274.23h3.63c1.57,0,2.84,1.27,2.84,2.84v2.6h-9.3v-2.6c0-1.57,1.27-2.84,2.84-2.84Z"/>
      <path class="cls-13" d="M90.32,276.83h.5c1.57,0,2.84,1.27,2.84,2.84h-6.18c0-1.57,1.27-2.84,2.84-2.84Z"/>
      <path class="cls-9" d="M91.88,276.83h.5c1.57,0,2.84,1.27,2.84,2.84h-6.18c0-1.57,1.27-2.84,2.84-2.84Z"/>
      <path class="cls-13" d="M149.91,276.83h.5c1.57,0,2.84,1.27,2.84,2.84h-6.18c0-1.57,1.27-2.84,2.84-2.84Z"/>
      <path class="cls-9" d="M151.46,276.83h.5c1.57,0,2.84,1.27,2.84,2.84h-6.18c0-1.57,1.27-2.84,2.84-2.84Z"/>
      <path class="cls-13" d="M255.71,276.83h.5c1.57,0,2.84,1.27,2.84,2.84h-6.18c0-1.57,1.27-2.84,2.84-2.84Z"/>
      <path class="cls-9" d="M257.26,276.83h.5c1.57,0,2.84,1.27,2.84,2.84h-6.18c0-1.57,1.27-2.84,2.84-2.84Z"/>
    </g>
    <g id="ground">
      <rect class="cls-4" x="250.29" y="270.35" width="60.86" height="5.5" rx="2.75" ry="2.75" transform="translate(561.43 546.2) rotate(-180)"/>
      <rect class="cls-4" x="42.58" y="270.35" width="27.39" height="5.5" rx="2.75" ry="2.75" transform="translate(112.54 546.2) rotate(-180)"/>
      <rect class="cls-4" x="74.73" y="270.35" width="63.35" height="5.5" rx="2.75" ry="2.75" transform="translate(212.8 546.2) rotate(180)"/>
      <rect class="cls-5" x="20.7" y="279.67" width="281.74" height="5.5" rx="2.75" ry="2.75" transform="translate(323.14 564.83) rotate(-180)"/>
      <rect class="cls-5" x="8.79" y="279.67" width="9.58" height="5.5" rx="2.75" ry="2.75" transform="translate(27.15 564.83) rotate(-180)"/>
      <rect class="cls-7" x="1.2" y="288.98" width="67" height="5.5" rx="2.75" ry="2.75" transform="translate(69.4 583.46) rotate(-180)"/>
      <rect class="cls-7" x="126.54" y="288.98" width="92.17" height="5.5" rx="2.75" ry="2.75" transform="translate(345.24 583.46) rotate(180)"/>
      <rect class="cls-7" x="114.54" y="288.98" width="9.5" height="5.5" rx="2.75" ry="2.75" transform="translate(238.57 583.46) rotate(-180)"/>
      <rect class="cls-4" x="48.83" y="298.3" width="28.42" height="5.5" rx="2.75" ry="2.75" transform="translate(126.07 602.1) rotate(-180)"/>
      <rect class="cls-4" x="240.04" y="298.3" width="18.39" height="5.5" rx="2.75" ry="2.75" transform="translate(498.46 602.1) rotate(180)"/>
      <rect class="cls-7" x="72.7" y="288.98" width="14" height="5.5" rx="2.75" ry="2.75" transform="translate(159.4 583.46) rotate(-180)"/>
      <rect class="cls-7" x="247.79" y="288.98" width="24.75" height="5.5" rx="2.75" ry="2.75" transform="translate(520.32 583.46) rotate(-180)"/>
      <rect class="cls-7" x="277.04" y="288.98" width="10.92" height="5.5" rx="2.75" ry="2.75" transform="translate(564.99 583.46) rotate(180)"/>
    </g>
    <g id="circles" class="cls-10">
      <circle class="cls-5" cx="176.66" cy="158.42" r="3.22"/>
      <circle class="cls-5" cx="103.74" cy="103.21" r="3.22"/>
      <circle class="cls-5" cx="159.33" cy="165.64" r="2.48"/>
      <circle class="cls-5" cx="128.3" cy="185.17" r="2.48"/>
      <circle class="cls-5" cx="181.57" cy="221.57" r="3.84"/>
      <circle class="cls-5" cx="111.8" cy="139.37" r="1.15"/>
      <circle class="cls-5" cx="168.52" cy="103.21" r="4.91"/>
      <circle class="cls-5" cx="73.11" cy="139.37" r="1.15"/>
      <circle class="cls-5" cx="63.52" cy="196.86" r="5.53"/>
      <circle class="cls-5" cx="90.77" cy="223.64" r=".69"/>
      <circle class="cls-5" cx="224.32" cy="152.11" r="1"/>
      <circle class="cls-5" cx="234.15" cy="101.6" r="1.61"/>
      <circle class="cls-5" cx="51.08" cy="85.25" r=".77"/>
      <circle class="cls-5" cx="99.56" cy="67.64" r=".96"/>
      <circle class="cls-5" cx="239.98" cy="192.33" r="1"/>
      <circle class="cls-5" cx="147.49" cy="245.83" r="4.14"/>
      <circle class="cls-5" cx="67.82" cy="268.09" r="2.76"/>
      <circle class="cls-5" cx="90.08" cy="269.47" r="1.38"/>
      <circle class="cls-5" cx="191.09" cy="253.2" r="1.07"/>
      <circle class="cls-5" cx="182.03" cy="199" r="2.15"/>
      <circle class="cls-5" cx="266.46" cy="123.48" r="1.23"/>
      <circle class="cls-5" cx="262.93" cy="213.28" r="2.3"/>
      <circle class="cls-5" cx="260.59" cy="245.56" r="2.34"/>
      <circle class="cls-5" cx="238.95" cy="222.61" r="1.04"/>
      <circle class="cls-5" cx="194.18" cy="69.65" r="1.06"/>
      <circle class="cls-5" cx="240.48" cy="61.19" r=".5"/>
      <circle class="cls-5" cx="285.5" cy="164.41" r="2.76"/>
      <circle class="cls-5" cx="139.66" cy="279.14" r="1.23"/>
      <circle class="cls-5" cx="39.26" cy="235.23" r="2.76"/>
      <circle class="cls-5" cx="23.91" cy="189.49" r="1.84"/>
      <circle class="cls-5" cx="25.45" cy="274.23" r="3.38"/>
      <circle class="cls-5" cx="305.15" cy="270.24" r="4.91"/>
      <circle class="cls-5" cx="300.1" cy="194" r="1.67"/>
      <circle class="cls-5" cx="251.11" cy="165.95" r="1.54"/>
      <circle class="cls-5" cx="305.92" cy="114.05" r=".77"/>
    </g>
    <g id="stars">
      <path class="cls-5" d="M86,248.36l1.76,.79,.79,1.75c.18,.39,.73,.39,.91,0l.79-1.76,1.75-.79c.39-.18,.39-.73,0-.91l-1.75-.79-.79-1.75c-.18-.39-.74-.39-.92,0l-.79,1.76-1.75,.79c-.39,.18-.39,.73,0,.91Z"/>
      <g>
        <path class="cls-5" d="M115.27,142.36h1.06c.28,0,.5-.22,.5-.5,0-.28-.22-.5-.5-.5h-1.06c-.28,0-.5,.22-.5,.5,0,.28,.22,.5,.5,.5Z"/>
        <path class="cls-5" d="M111.77,142.36h1.06c.28,0,.5-.22,.5-.5,0-.28-.22-.5-.5-.5h-1.06c-.28,0-.5,.22-.5,.5,0,.28,.22,.5,.5,.5Z"/>
        <path class="cls-5" d="M114.55,140.64v-1.06c0-.28-.22-.5-.5-.5s-.5,.22-.5,.5v1.06c0,.28,.22,.5,.5,.5s.5-.22,.5-.5Z"/>
        <path class="cls-5" d="M114.55,144.13v-1.06c0-.28-.22-.5-.5-.5s-.5,.22-.5,.5v1.06c0,.28,.22,.5,.5,.5s.5-.22,.5-.5Z"/>
      </g>
      <g>
        <path class="cls-5" d="M79.83,198.49h1.99c.52,0,.94-.42,.94-.94s-.42-.94-.94-.94h-1.99c-.52,0-.94,.42-.94,.94s.42,.94,.94,.94Z"/>
        <path class="cls-5" d="M73.25,198.49h1.99c.52,0,.94-.42,.94-.94s-.42-.94-.94-.94h-1.99c-.52,0-.94,.42-.94,.94s.42,.94,.94,.94Z"/>
        <path class="cls-5" d="M78.48,195.25v-1.99c0-.52-.42-.94-.94-.94s-.94,.42-.94,.94v1.99c0,.52,.42,.94,.94,.94s.94-.42,.94-.94Z"/>
        <path class="cls-5" d="M78.48,201.83v-1.99c0-.52-.42-.94-.94-.94s-.94,.42-.94,.94v1.99c0,.52,.42,.94,.94,.94s.94-.42,.94-.94Z"/>
      </g>
      <g>
        <path class="cls-5" d="M238.76,200h1.06c.28,0,.5-.22,.5-.5s-.22-.5-.5-.5h-1.06c-.28,0-.5,.22-.5,.5s.22,.5,.5,.5Z"/>
        <path class="cls-5" d="M234.69,200h1.06c.28,0,.5-.22,.5-.5s-.22-.5-.5-.5h-1.06c-.28,0-.5,.22-.5,.5s.22,.5,.5,.5Z"/>
        <path class="cls-5" d="M237.76,197.99v-1.06c0-.28-.22-.5-.5-.5s-.5,.22-.5,.5v1.06c0,.28,.22,.5,.5,.5s.5-.22,.5-.5Z"/>
        <path class="cls-5" d="M237.76,202.06v-1.06c0-.28-.22-.5-.5-.5s-.5,.22-.5,.5v1.06c0,.28,.22,.5,.5,.5s.5-.22,.5-.5Z"/>
      </g>
      <g>
        <path class="cls-5" d="M225.97,228.24h1.75c.46,0,.83-.37,.83-.83s-.37-.83-.83-.83h-1.75c-.46,0-.83,.37-.83,.83s.37,.83,.83,.83Z"/>
        <path class="cls-5" d="M219.24,228.24h1.75c.46,0,.83-.37,.83-.83s-.37-.83-.83-.83h-1.75c-.46,0-.83,.37-.83,.83s.37,.83,.83,.83Z"/>
        <path class="cls-5" d="M224.3,224.92v-1.75c0-.46-.37-.83-.83-.83s-.83,.37-.83,.83v1.75c0,.46,.37,.83,.83,.83s.83-.37,.83-.83Z"/>
        <path class="cls-5" d="M224.3,231.64v-1.75c0-.46-.37-.83-.83-.83s-.83,.37-.83,.83v1.75c0,.46,.37,.83,.83,.83s.83-.37,.83-.83Z"/>
      </g>
    </g>
    <g>
      <path class="cls-14" d="M164.31,206.84l-49.5-6.24c-2.2-.28-4.23,.31-6.08,1.75-1.86,1.44-2.93,3.26-3.2,5.46l-6.24,49.5c-.28,2.2,.31,4.23,1.75,6.09,1.44,1.85,3.26,2.92,5.46,3.2l49.5,6.24c2.2,.28,4.23-.31,6.08-1.75,1.86-1.44,2.93-3.26,3.21-5.46l6.24-49.5c.28-2.2-.3-4.23-1.75-6.09-1.44-1.86-3.26-2.93-5.46-3.2Z"/>
      <path class="cls-14" d="M247.94,66.86c-4.33-11.1-10.51-20.77-18.55-29.05-8.03-8.27-17.36-15.25-27.95-20.91-10.6-5.66-21.4-9.19-32.4-10.57C127.25,1.06,93.05,15.33,66.44,49.13c-1.32,1.65-1.95,3.52-1.86,5.63,.09,2.1,.93,3.96,2.55,5.56l30.57,30.04c1.65,1.32,3.3,2.09,4.95,2.3,2.48,.31,4.74-.52,6.81-2.5,11.46-11.13,19.81-18.1,25.05-20.94,6.42-3.24,14.09-4.3,23.02-3.17,8.39,1.06,15.5,4.19,21.34,9.39,5.84,5.21,8.39,10.7,7.66,16.47-.81,6.46-3.19,11.47-7.13,15.02-3.94,3.55-10.2,6.67-18.78,9.36-11.33,3.46-22.1,9.68-32.31,18.66-10.21,8.98-16.03,19.18-17.47,30.59l-1.17,9.28c-.33,2.61,.06,5.28,1.19,8.01,1.12,2.73,2.72,4.22,4.78,4.48l49.49,6.24c2.2,.28,4.26-.54,6.18-2.47,1.91-1.92,3.02-4.05,3.32-6.38,.43-3.44,2.9-7.81,7.41-13.1,4.51-5.3,9.78-9.18,15.82-11.63,5.74-2.35,10.24-4.26,13.5-5.73,3.26-1.47,7.59-3.97,12.99-7.48,5.4-3.51,9.7-7.13,12.89-10.84,3.19-3.72,6.26-8.67,9.21-14.87,2.95-6.19,4.89-13,5.82-20.43,1.44-11.41-.01-22.66-4.34-33.75Z"/>
    </g>
    <g>
      <path class="cls-11" d="M173.16,201.58l-49.5-6.24c-2.2-.28-4.23,.31-6.08,1.75-1.86,1.44-2.93,3.26-3.2,5.46l-6.24,49.5c-.28,2.2,.31,4.23,1.75,6.09,1.44,1.85,3.26,2.92,5.46,3.2l49.5,6.24c2.2,.28,4.23-.31,6.08-1.75,1.86-1.44,2.93-3.26,3.21-5.46l6.24-49.5c.28-2.2-.3-4.23-1.75-6.09-1.44-1.86-3.26-2.93-5.46-3.2Z"/>
      <path class="cls-11" d="M256.79,61.6c-4.33-11.1-10.51-20.77-18.55-29.05-8.03-8.27-17.36-15.25-27.95-20.91-10.6-5.66-21.4-9.19-32.4-10.57-41.79-5.27-75.99,9-102.6,42.8-1.32,1.65-1.95,3.52-1.86,5.63,.09,2.1,.93,3.96,2.55,5.56l30.57,30.04c1.65,1.32,3.3,2.09,4.95,2.3,2.48,.31,4.74-.52,6.81-2.5,11.46-11.13,19.81-18.1,25.05-20.94,6.42-3.24,14.09-4.3,23.02-3.17,8.39,1.06,15.5,4.19,21.34,9.39,5.84,5.21,8.39,10.7,7.66,16.47-.81,6.46-3.19,11.47-7.13,15.02-3.94,3.55-10.2,6.67-18.78,9.36-11.33,3.46-22.1,9.68-32.31,18.66-10.21,8.98-16.03,19.18-17.47,30.59l-1.17,9.28c-.33,2.61,.06,5.28,1.19,8.01,1.12,2.73,2.72,4.22,4.78,4.48l49.49,6.24c2.2,.28,4.26-.54,6.18-2.47,1.91-1.92,3.02-4.05,3.32-6.38,.43-3.44,2.9-7.81,7.41-13.1,4.51-5.3,9.78-9.18,15.82-11.63,5.74-2.35,10.24-4.26,13.5-5.73,3.26-1.47,7.59-3.97,12.99-7.48,5.4-3.51,9.7-7.13,12.89-10.84,3.19-3.72,6.26-8.67,9.21-14.87,2.95-6.19,4.89-13,5.82-20.43,1.44-11.41-.01-22.66-4.34-33.75Z"/>
    </g>
    <g>
      <path class="cls-16" d="M173.16,201.58l-49.5-6.24c-2.2-.28-4.23,.31-6.08,1.75-1.86,1.44-2.93,3.26-3.2,5.46l-6.24,49.5c-.28,2.2,.31,4.23,1.75,6.09,1.44,1.85,3.26,2.92,5.46,3.2l49.5,6.24c2.2,.28,4.23-.31,6.08-1.75,1.86-1.44,2.93-3.26,3.21-5.46l6.24-49.5c.28-2.2-.3-4.23-1.75-6.09-1.44-1.86-3.26-2.93-5.46-3.2Z"/>
      <path class="cls-1" d="M256.79,61.6c-4.33-11.1-10.51-20.77-18.55-29.05-8.03-8.27-17.36-15.25-27.95-20.91-10.6-5.66-21.4-9.19-32.4-10.57-41.79-5.27-75.99,9-102.6,42.8-1.32,1.65-1.95,3.52-1.86,5.63,.09,2.1,.93,3.96,2.55,5.56l30.57,30.04c1.65,1.32,3.3,2.09,4.95,2.3,2.48,.31,4.74-.52,6.81-2.5,11.46-11.13,19.81-18.1,25.05-20.94,6.42-3.24,14.09-4.3,23.02-3.17,8.39,1.06,15.5,4.19,21.34,9.39,5.84,5.21,8.39,10.7,7.66,16.47-.81,6.46-3.19,11.47-7.13,15.02-3.94,3.55-10.2,6.67-18.78,9.36-11.33,3.46-22.1,9.68-32.31,18.66-10.21,8.98-16.03,19.18-17.47,30.59l-1.17,9.28c-.33,2.61,.06,5.28,1.19,8.01,1.12,2.73,2.72,4.22,4.78,4.48l49.49,6.24c2.2,.28,4.26-.54,6.18-2.47,1.91-1.92,3.02-4.05,3.32-6.38,.43-3.44,2.9-7.81,7.41-13.1,4.51-5.3,9.78-9.18,15.82-11.63,5.74-2.35,10.24-4.26,13.5-5.73,3.26-1.47,7.59-3.97,12.99-7.48,5.4-3.51,9.7-7.13,12.89-10.84,3.19-3.72,6.26-8.67,9.21-14.87,2.95-6.19,4.89-13,5.82-20.43,1.44-11.41-.01-22.66-4.34-33.75Z"/>
    </g>
    <path class="cls-12" d="M166.29,266.64c.29-.06,4.03-.47,7.23-7.62l-.46,1.49c-1.33,4.34-4.33,5.86-6.76,6.13Z"/>
    <path class="cls-12" d="M179.09,108.08c.64-.16,8.89-1.77,15.59-12.95l-.95,2.28c-2.72,6.63-9.27,9.63-14.64,10.68Z"/>
    <path class="cls-12" d="M175.28,187.21c.29-.06,4.03-.47,7.23-7.62l-.46,1.49c-1.33,4.34-4.33,5.86-6.76,6.13Z"/>
    <path class="cls-2" d="M124.22,196.2c-.27,.04-5.78,.82-9.12,6.6l.51-1.21c1.46-3.53,5.04-5.37,8.61-5.39Z"/>
    <path class="cls-2" d="M83.02,37.16c-.24,.14-6.9,6.55-7.84,13.17l.02-1.31c.04-3.83,4.52-10.49,7.82-11.85Z"/>
  </g>
</svg>